<?xml version="1.0" encoding="UTF-8" standalone="no"?>
<!-- Created with Inkscape (http://www.inkscape.org/) -->

<svg
   xmlns:dc="http://purl.org/dc/elements/1.1/"
   xmlns:cc="http://creativecommons.org/ns#"
   xmlns:rdf="http://www.w3.org/1999/02/22-rdf-syntax-ns#"
   xmlns:svg="http://www.w3.org/2000/svg"
   xmlns="http://www.w3.org/2000/svg"
   xmlns:xlink="http://www.w3.org/1999/xlink"
   xmlns:sodipodi="http://sodipodi.sourceforge.net/DTD/sodipodi-0.dtd"
   xmlns:inkscape="http://www.inkscape.org/namespaces/inkscape"
   id="svg2"
   version="1.1"
   inkscape:version="0.47 r22583"
   width="885.82623"
   height="885.82751"
   xml:space="preserve"
   sodipodi:docname="ic_launcher_ontap.svg"
   inkscape:export-filename="/home/dave/OnTap/App/art/ldpi/ic_launcher_ontap.png"
   inkscape:export-xdpi="3.6600001"
   inkscape:export-ydpi="3.6600001"
   style="display:inline"><metadata
     id="metadata8"><rdf:RDF><cc:Work
         rdf:about=""><dc:format>image/svg+xml</dc:format><dc:type
           rdf:resource="http://purl.org/dc/dcmitype/StillImage" /><dc:title></dc:title></cc:Work></rdf:RDF></metadata><defs
     id="defs6"><linearGradient
       inkscape:collect="always"
       id="linearGradient3954"><stop
         style="stop-color:#ffffff;stop-opacity:1;"
         offset="0"
         id="stop3956" /><stop
         style="stop-color:#ffffff;stop-opacity:0;"
         offset="1"
         id="stop3958" /></linearGradient><linearGradient
       id="linearGradient3925"><stop
         style="stop-color:#000000;stop-opacity:1;"
         offset="0"
         id="stop3927" /><stop
         style="stop-color:#000000;stop-opacity:0;"
         offset="1"
         id="stop3929" /></linearGradient><inkscape:perspective
       sodipodi:type="inkscape:persp3d"
       inkscape:vp_x="0 : 0.5 : 1"
       inkscape:vp_y="0 : 1000 : 0"
       inkscape:vp_z="1 : 0.5 : 1"
       inkscape:persp3d-origin="0.5 : 0.33333333 : 1"
       id="perspective10" /><clipPath
       clipPathUnits="userSpaceOnUse"
       id="clipPath18"><path
         d="m 0,708.662 708.661,0 L 708.661,0 0,0 0,708.662 z"
         id="path20" /></clipPath><radialGradient
       inkscape:collect="always"
       xlink:href="#linearGradient3954"
       id="radialGradient3960"
       cx="442.91501"
       cy="437.49579"
       fx="442.91501"
       fy="437.49579"
       r="442.91501"
       gradientTransform="matrix(0.99543401,0,0,0.99540944,-0.89257417,10.340141)"
       gradientUnits="userSpaceOnUse" /></defs><sodipodi:namedview
     pagecolor="#ffffff"
     bordercolor="#666666"
     borderopacity="1"
     objecttolerance="10"
     gridtolerance="10"
     guidetolerance="10"
     inkscape:pageopacity="0"
     inkscape:pageshadow="2"
     inkscape:window-width="823"
     inkscape:window-height="711"
     id="namedview4"
     showgrid="true"
     inkscape:snap-global="true"
     inkscape:zoom="0.47158032"
     inkscape:cx="442.91312"
     inkscape:cy="435.40674"
     inkscape:window-x="32"
     inkscape:window-y="25"
     inkscape:window-maximized="0"
     inkscape:current-layer="layer2"
     units="px"
     showguides="true"><inkscape:grid
       type="xygrid"
       id="grid4146"
       empspacing="5"
       visible="true"
       enabled="true"
       snapvisiblegridlinesonly="true" /></sodipodi:namedview><g
     inkscape:groupmode="layer"
     id="layer2"
     inkscape:label="Background"><rect
       style="fill:#ffffff;fill-opacity:1;stroke:#000000;stroke-width:10;stroke-linecap:round;stroke-linejoin:round;stroke-miterlimit:4;stroke-opacity:1;stroke-dasharray:none;stroke-dashoffset:0"
       id="rect4149"
       width="840"
       height="820"
       x="20"
       y="25.827515" /></g><g
     id="g12"
     inkscape:groupmode="layer"
     inkscape:label="barley_legal_logo_vector"
     transform="matrix(1.25,0,0,-1.25,0,885.82695)"
     style="display:inline"><g
       id="g14"><g
         id="g16"
         clip-path="url(#clipPath18)"><g
           id="g22"
           transform="translate(164.6162,486.6558)"><path
             d="m 0,0 c -3,1.732 -6.406,2.648 -9.849,2.648 -7.041,0 -13.599,-3.783 -17.115,-9.873 -5.442,-9.426 -2.201,-21.523 7.225,-26.964 2.992,-1.728 6.389,-2.642 9.822,-2.642 1.469,0 2.918,0.183 4.332,0.499 4.295,8.72 9.149,17.113 14.529,25.125 C 7.5,-6.583 4.385,-2.532 0,0"
             style="fill:#231f20;fill-opacity:1;fill-rule:nonzero;stroke:none"
             id="path24" /></g><g
           id="g26"
           transform="translate(553.9629,449.8252)"><path
             d="m 0,0 c 3.433,0 6.829,0.914 9.822,2.641 9.425,5.442 12.666,17.538 7.224,26.964 -3.516,6.09 -10.073,9.874 -17.114,9.874 -3.443,0 -6.848,-0.916 -9.849,-2.648 -4.386,-2.533 -7.501,-6.583 -8.945,-11.208 C -13.482,17.611 -8.629,9.218 -4.334,0.5 -2.92,0.182 -1.47,0 0,0"
             style="fill:#231f20;fill-opacity:1;fill-rule:nonzero;stroke:none"
             id="path28" /></g><g
           id="g30"
           transform="translate(154.6992,258.8369)"><path
             d="m 0,0 c -3.433,0 -6.83,-0.913 -9.822,-2.642 -9.426,-5.442 -12.667,-17.538 -7.225,-26.963 3.516,-6.09 10.074,-9.874 17.115,-9.874 3.443,0 6.849,0.916 9.849,2.649 4.384,2.53 7.498,6.579 8.942,11.201 C 13.478,-17.614 8.623,-9.22 4.328,-0.498 2.916,-0.182 1.468,0 0,0"
             style="fill:#231f20;fill-opacity:1;fill-rule:nonzero;stroke:none"
             id="path32" /></g><g
           id="g34"
           transform="translate(368.8223,571.4082)"><path
             d="m 0,0 c 3.292,3.567 5.248,8.304 5.248,13.383 0,10.884 -8.855,19.739 -19.74,19.739 -10.884,0 -19.738,-8.855 -19.738,-19.739 0,-5.079 1.956,-9.815 5.248,-13.383 4.79,0.315 9.618,0.492 14.488,0.492 C -9.622,0.492 -4.792,0.315 0,0"
             style="fill:#231f20;fill-opacity:1;fill-rule:nonzero;stroke:none"
             id="path36" /></g><g
           id="g38"
           transform="translate(339.8398,137.2529)"><path
             d="m 0,0 c -3.292,-3.566 -5.248,-8.303 -5.248,-13.382 0,-10.884 8.854,-19.739 19.738,-19.739 10.885,0 19.74,8.855 19.74,19.739 0,5.079 -1.957,9.816 -5.249,13.383 C 24.189,-0.314 19.359,-0.491 14.488,-0.491 9.618,-0.491 4.79,-0.314 0,0"
             style="fill:#231f20;fill-opacity:1;fill-rule:nonzero;stroke:none"
             id="path40" /></g><g
           id="g42"
           transform="translate(574.4736,227.2314)"><path
             d="m 0,0 c -4.229,-7.323 -12.113,-11.873 -20.578,-11.873 l -0.001,0 c -4.145,0 -8.242,1.102 -11.85,3.184 -4.368,2.522 -7.687,6.298 -9.689,10.678 -35.892,-50.968 -93.116,-85.82 -158.695,-91.594 2.796,-3.929 4.41,-8.701 4.41,-13.755 0,-13.09 -10.65,-23.74 -23.741,-23.74 -13.089,0 -23.738,10.65 -23.738,23.74 0,5.054 1.613,9.826 4.409,13.755 -65.579,5.773 -122.804,40.625 -158.695,91.593 -2.003,-4.38 -5.322,-8.156 -9.689,-10.677 -3.608,-2.083 -7.706,-3.184 -11.85,-3.184 -8.464,0 -16.35,4.55 -20.579,11.873 -6.545,11.336 -2.647,25.883 8.689,32.429 3.6,2.078 7.689,3.176 11.823,3.176 0.749,0 1.492,-0.046 2.232,-0.116 -12.946,27.844 -20.187,58.877 -20.187,91.606 0,32.732 7.242,63.768 20.19,91.616 -0.741,-0.07 -1.485,-0.117 -2.235,-0.117 -4.134,0 -8.223,1.098 -11.823,3.177 -11.335,6.544 -15.233,21.092 -8.689,32.428 4.229,7.324 12.115,11.873 20.579,11.873 4.144,0 8.242,-1.101 11.85,-3.184 4.369,-2.523 7.688,-6.3 9.69,-10.681 35.892,50.97 93.116,85.824 158.694,91.598 -2.796,3.929 -4.409,8.7 -4.409,13.755 0,13.089 10.649,23.739 23.738,23.739 13.091,0 23.741,-10.65 23.741,-23.739 0,-5.055 -1.614,-9.827 -4.41,-13.756 65.578,-5.775 122.802,-40.629 158.693,-91.598 2.003,4.381 5.322,8.159 9.692,10.682 3.608,2.083 7.705,3.184 11.849,3.184 8.465,0 16.35,-4.549 20.579,-11.873 6.544,-11.336 2.646,-25.883 -8.688,-32.428 -3.601,-2.079 -7.689,-3.177 -11.823,-3.177 -0.751,0 -1.496,0.047 -2.237,0.117 12.948,-27.847 20.191,-58.884 20.191,-91.616 0,-32.729 -7.241,-63.762 -20.187,-91.607 0.74,0.071 1.484,0.117 2.233,0.117 4.134,0 8.222,-1.098 11.822,-3.176 C 2.646,25.883 6.544,11.336 0,0 m -220.146,390.5 c -145.482,0 -263.417,-117.937 -263.417,-263.406 0,-145.471 117.935,-263.395 263.417,-263.395 145.482,0 263.423,117.924 263.423,263.395 0,145.469 -117.941,263.406 -263.423,263.406"
             style="fill:#231f20;fill-opacity:1;fill-rule:nonzero;stroke:none"
             id="path44" /></g><g
           id="g46"
           transform="translate(563.7842,256.1953)"><path
             d="m 0,0 c -2.992,1.729 -6.389,2.642 -9.821,2.642 -1.469,0 -2.917,-0.182 -4.33,-0.499 -4.295,-8.72 -9.15,-17.115 -14.531,-25.128 1.445,-4.623 4.559,-8.672 8.943,-11.203 3.001,-1.733 6.406,-2.649 9.849,-2.649 7.04,0 13.599,3.783 17.115,9.873 C 12.667,-17.538 9.426,-5.442 0,0"
             style="fill:#231f20;fill-opacity:1;fill-rule:nonzero;stroke:none"
             id="path48" /></g><g
           id="g50"
           transform="translate(332.2217,331.707)"><path
             d="m 0,0 c 0.062,0.633 1.276,1.577 0.752,1.806 l -47.922,0 c 3.693,-2.534 8.472,-6.583 14.016,-8.137 3.768,-1.056 8.783,-1.056 13.26,-1.056 4.667,0 9.699,-0.077 13.714,0.604 C 1.941,-5.407 8.2,-0.934 13.111,2.561 7.64,4.063 3.583,-5.05 0,0"
             style="fill:#231f20;fill-opacity:1;fill-rule:nonzero;stroke:none"
             id="path52" /></g><g
           id="g54"
           transform="translate(316.248,415.4951)"><path
             d="M 0,0 C -0.023,0.831 -0.328,1.381 -0.453,2.11 0.273,3.193 1.153,4.12 2.109,4.973 5.311,4.609 8.032,3.764 11.15,3.315 7.584,2.059 3.734,1.088 0,0 m 83.036,-28.331 c -8.368,2.644 -14.621,7.528 -21.401,13.11 -4.474,3.685 -9.284,8.108 -14.77,11.153 -1.703,0.945 -4.424,2.451 -6.328,2.411 -1.574,-0.035 -3.478,-1.062 -4.973,-1.657 -1.603,-0.643 -3.055,-1.44 -4.52,-2.112 -3.597,1.376 -6.401,3.547 -6.782,8.139 C 16.974,1.572 18.351,10.351 14.016,12.658 12.989,11.875 12.487,10.568 11.904,9.344 7.082,8.287 2.44,7.053 -2.412,6.027 c 0.502,-3.074 0.336,-6.854 -0.151,-9.795 2.549,-0.037 4.747,0.277 7.235,0.301 0.652,-1.906 1.002,-4.12 1.657,-6.027 2.968,-0.201 4.932,1.488 7.384,2.26 1.926,-1.792 4.156,-4.08 5.576,-5.877 -2.535,-2.232 -6.551,-3.623 -8.288,-6.48 -2.497,-4.101 -1.222,-11.597 -1.81,-17.029 -0.576,-5.33 -1.932,-9.987 -3.767,-14.166 -3.971,-9.042 -7.129,-17.042 -11.453,-25.469 0.435,0.538 3.488,2.281 5.576,1.206 -0.273,1.463 0.793,2.673 1.658,4.069 6.235,10.075 11.22,20.917 15.221,33.002 1.427,4.313 2.181,8.972 4.671,12.961 4.104,-2.929 8.925,-5.943 14.62,-6.781 -1.936,6.204 -3.135,13.142 -3.62,20.796 0.876,-0.019 1.426,0.285 2.262,0.303 1.079,-10.878 3.251,-20.661 5.877,-29.99 -4.355,-6.429 -9.114,-13.279 -13.562,-19.741 -1.535,-2.231 -2.82,-4.832 -4.522,-6.633 -2.086,-2.203 -5.75,-2.988 -6.782,-6.026 0.938,1.144 2.581,2.14 4.673,1.657 0.428,-2.003 2.041,-3.871 1.958,-6.027 -0.08,-2.091 -1.737,-3.527 -2.411,-5.276 1.616,0.929 2.479,2.065 3.467,3.617 0.752,1.181 2.177,3.37 1.959,5.275 -0.147,1.278 -1.603,2.665 -1.356,4.371 0.161,1.133 1.74,2.505 2.861,3.767 5.571,6.26 11.168,10.935 16.428,17.028 1.5,1.739 5.072,5.569 5.274,8.139 0.166,2.117 -0.893,4.835 -1.358,6.932 -1.567,7.107 -3.134,13.312 -4.97,19.892 0.945,0.058 1.404,0.606 2.41,0.603 2.603,-7.542 4.259,-16.036 5.879,-24.564 5.224,-1.908 9.776,-4.49 14.616,-6.783 5.696,4.906 11.96,10.256 17.483,15.223 0.239,0.216 1.118,0.35 0.753,0.904"
             style="fill:#231f20;fill-opacity:1;fill-rule:nonzero;stroke:none"
             id="path56" /></g><g
           id="g58"
           transform="translate(314.4385,338.3369)"><path
             d="m 0,0 c -1.491,-0.527 -3.483,-1.326 -3.618,-2.713 l 4.824,0 C 0.866,-1.746 0.889,-0.419 0,0"
             style="fill:#231f20;fill-opacity:1;fill-rule:nonzero;stroke:none"
             id="path60" /></g><g
           id="g62"
           transform="translate(326.1934,322.6641)"><path
             d="m 0,0 c -6.627,-1.077 -15.199,-0.551 -22.152,-0.153 -3.048,-3.389 -6.959,-7.493 -8.289,-12.508 -1.176,-4.434 1.058,-7.775 2.56,-11 3.233,-6.937 6.801,-14.522 10.248,-20.495 l 12.509,0 c 3.496,6.569 7.618,14.665 10.7,22.002 1.078,2.569 2.49,5.579 2.712,8.29 C 8.832,-7.211 3.471,-3.573 0,0"
             style="fill:#231f20;fill-opacity:1;fill-rule:nonzero;stroke:none"
             id="path64" /></g><g
           id="g66"
           transform="translate(330.2637,430.7158)"><path
             d="M 0,0 C 5.115,-1.363 4.824,-8.136 9.041,-10.398 14.048,-6.008 10.016,1.459 6.178,4.973 3.927,7.033 0.456,9.15 -3.467,8.287 -11.145,6.602 -19.957,2.519 -17.03,-7.082 c 4.384,0.99 8.649,2.101 13.111,3.012 0.72,1.941 1.97,3.356 3.919,4.07"
             style="fill:#231f20;fill-opacity:1;fill-rule:nonzero;stroke:none"
             id="path68" /></g><g
           id="g70"
           transform="translate(337.6465,351.8994)"><path
             d="m 0,0 c 4.711,6.2 9.147,12.926 13.714,19.439 0.88,1.256 2.491,3.228 2.561,4.07 0.149,1.779 -1.536,3.836 -1.354,5.576 C 9.313,30.462 4.725,32.856 0.301,35.414 -3.516,17.231 -11.267,2.978 -19.44,-10.849 c 1.164,-1.147 1.217,-3.405 1.507,-5.426 4.97,0.203 10.196,0.151 15.371,0.151 1.434,1.486 0.523,4.599 -0.302,6.028 -1.979,-0.622 -3.361,-3.148 -6.179,-1.96 -0.904,0.483 -0.779,0.514 -0.602,1.054 C -7.586,-6.238 -2.977,-3.916 0,0"
             style="fill:#231f20;fill-opacity:1;fill-rule:nonzero;stroke:none"
             id="path72" /></g><g
           id="g74"
           transform="translate(426.5586,278.96)"><path
             d="m 0,0 c -0.636,-2.794 -7.35,-4.439 -8.89,-1.054 -0.856,-0.578 -1.161,-1.694 -2.262,-1.96 -1.467,-0.353 -3.732,0 -5.727,0 l -17.18,0 c -0.051,2.214 0.075,4.248 0.605,5.877 8.878,0.013 16.518,1.263 19.44,7.235 -2.185,8.052 -2.779,15.75 -5.426,22.906 -2.492,6.73 -7.309,12.225 -7.532,20.796 -2.836,-0.677 -6.799,0.892 -9.798,0 -0.921,-0.273 -2.92,-3.233 -3.918,-4.671 -7.015,-10.119 -9.238,-24.48 -14.015,-36.922 -0.756,-1.969 -2.194,-4.826 -2.262,-6.178 -0.107,-2.204 1.69,-4.554 0.906,-6.933 -0.806,-2.447 -4.685,-2.602 -6.329,-0.753 -1.222,-1.964 -4.374,-1.258 -7.838,-1.205 -5.604,0.085 -12.192,0.024 -17.331,0.3 -0.601,1.206 -0.419,3.197 -0.451,4.973 6.779,1.064 15.483,0.849 19.44,4.974 1.535,1.601 2.648,4.945 3.465,7.536 2.285,7.212 3.923,14.48 4.672,22.907 0.146,1.617 0.029,3.446 0.304,5.121 0.247,1.523 1.365,3.473 2.108,5.276 3.562,8.63 7.071,17.078 10.096,26.222 1.625,4.905 3.774,9.715 2.412,15.069 -4.294,2.638 -9.262,4.601 -14.015,6.782 -1.738,-7.2 -7.578,-12.25 -12.206,-16.878 -4.348,-4.348 -8.519,-8.524 -12.356,-12.81 2.08,-2.8 0.824,-6.431 -0.603,-9.193 l 5.424,0 c 0.199,-1.208 0.404,-2.407 0.603,-3.617 -6.379,-2.965 -10.807,-7.88 -18.386,-9.644 2.131,-4.003 7.179,-7.232 7.534,-13.113 0.191,-3.101 -1.423,-6.725 -2.561,-9.643 -3.343,-8.568 -8.025,-16.927 -11.755,-24.414 l -15.672,0 c -3.595,6.622 -7.793,14.545 -11.152,22.303 -1.065,2.459 -2.686,5.537 -2.864,8.14 -0.495,7.278 4.993,12.321 8.139,16.425 -7.935,1.709 -13.381,5.912 -19.14,9.795 l 0,3.015 23.961,0 c 0.694,3.736 3.634,5.895 5.124,9.041 0.834,1.761 1.13,3.795 1.809,5.577 3.25,8.537 8.693,16.475 9.946,26.673 0.524,4.261 0.226,8.758 0.603,14.017 0.437,6.09 4.26,8.972 8.59,11.754 -0.742,1.216 -1.87,2.047 -2.864,3.013 -2.578,-1.178 -4.972,-2.485 -8.589,-1.507 -0.586,1.876 -1.012,3.913 -1.657,5.727 -3.007,-0.29 -6.2,-0.816 -7.838,0.904 -0.076,2.803 0.75,4.964 0.754,7.385 0.004,3.588 -1.808,6.054 -1.808,9.494 0,2.774 1.55,5.567 3.165,7.233 5.456,5.634 17.856,9.573 24.866,2.562 1.404,-1.404 2.668,-3.396 3.615,-5.426 0.915,-1.954 2.149,-4.673 2.262,-6.63 0.158,-2.751 -1.473,-5.092 -1.207,-7.987 0.232,-2.525 2.744,-3.49 4.522,-4.822 1.567,0.519 3.217,1.173 4.972,1.808 1.614,0.584 3.416,1.715 4.975,1.809 2.642,0.158 6.524,-2.256 9.042,-3.919 5.507,-3.639 9.371,-7.495 14.164,-11.603 2.237,-1.916 4.538,-4.174 7.085,-5.727 3.153,-1.923 7.133,-3.199 10.699,-4.822 3.457,-1.574 6.976,-3.188 10.396,-4.974 6.14,-3.204 14.782,-8.145 15.674,-16.125 0.729,-6.511 -2.419,-12.298 -4.521,-16.275 -1.987,-3.759 -4.146,-7.79 -4.523,-12.659 -0.51,-6.646 1.362,-13.66 2.865,-18.989 0.776,-2.753 1.754,-5.569 2.713,-8.288 0.945,-2.685 2.254,-5.521 2.562,-8.288 0.374,-3.333 -0.667,-6.173 -0.299,-9.795 0.251,-2.499 1.178,-5.158 1.806,-7.838 C -1.301,6.473 0.408,1.791 0,0 m 137.226,-22.765 c -2.993,1.729 -6.389,2.642 -9.822,2.642 -4.774,0 -9.385,-1.723 -12.985,-4.851 l -1.831,-1.59 -58.853,101.935 58.852,101.935 1.831,-1.591 c 3.6,-3.127 8.212,-4.85 12.986,-4.85 3.433,0 6.829,0.914 9.823,2.641 9.424,5.442 12.666,17.538 7.223,26.965 -3.515,6.09 -10.073,9.873 -17.114,9.873 -3.442,0 -6.848,-0.916 -9.849,-2.648 -7.283,-4.206 -11.097,-12.587 -9.493,-20.856 l 0.463,-2.381 -117.702,0 -0.578,1 -58.267,100.92 2.294,0.79 c 7.96,2.743 13.308,10.243 13.308,18.662 0,10.884 -8.856,19.739 -19.741,19.739 -10.883,0 -19.738,-8.855 -19.738,-19.739 0,-8.419 5.348,-15.919 13.308,-18.662 l 2.293,-0.79 -58.843,-101.92 -117.705,0 0.462,2.381 c 1.606,8.269 -2.208,16.65 -9.49,20.856 -3.001,1.732 -6.407,2.648 -9.85,2.648 -7.04,0 -13.598,-3.783 -17.115,-9.873 -5.441,-9.427 -2.2,-21.523 7.225,-26.965 2.993,-1.727 6.39,-2.641 9.823,-2.641 4.774,0 9.386,1.722 12.984,4.85 l 1.832,1.591 58.853,-101.935 -58.853,-101.934 -1.832,1.59 c -3.598,3.127 -8.21,4.85 -12.984,4.85 -3.433,0 -6.83,-0.913 -9.823,-2.642 -9.425,-5.442 -12.667,-17.538 -7.225,-26.964 3.517,-6.089 10.075,-9.873 17.115,-9.873 3.443,0 6.849,0.916 9.85,2.649 7.282,4.204 11.096,12.586 9.49,20.855 l -0.462,2.381 117.705,0 58.843,-101.921 -2.293,-0.79 c -7.96,-2.742 -13.308,-10.241 -13.308,-18.661 0,-10.884 8.855,-19.739 19.738,-19.739 10.885,0 19.741,8.855 19.741,19.739 0,8.419 -5.349,15.918 -13.309,18.661 l -2.294,0.79 58.846,101.921 117.704,0 -0.463,-2.381 c -1.605,-8.27 2.208,-16.651 9.49,-20.855 3.001,-1.733 6.407,-2.649 9.85,-2.649 7.04,0 13.599,3.784 17.114,9.873 5.443,9.426 2.201,21.522 -7.224,26.964"
             style="fill:#231f20;fill-opacity:1;fill-rule:nonzero;stroke:none"
             id="path76" /></g><g
           id="g78"
           transform="translate(420.5303,294.4824)"><path
             d="m 0,0 c -0.297,3.107 0.719,6.261 0.603,9.042 -0.095,2.293 -1.205,4.646 -2.109,7.082 -2.565,6.912 -4.73,14.215 -5.427,22.153 l -11.603,0 c -0.257,-0.059 0.034,-0.194 0,-0.451 0.082,-8.424 5.05,-13.272 7.387,-20.646 1.572,-4.966 3.14,-11.165 4.368,-16.728 0.365,-1.644 1.369,-4.355 1.206,-5.877 -0.143,-1.314 -1.481,-2.312 -2.41,-3.315 -3.225,-3.476 -8.203,-5.316 -14.165,-5.727 -1.338,-0.093 -3.767,0.691 -3.619,-1.055 0.22,-0.843 1.368,-0.432 1.961,-0.453 2.645,-0.082 5.052,0 7.682,0 3.532,0 7.667,-0.604 10.249,0 1.357,0.319 2.263,1.901 3.315,2.111 0.953,-0.327 1.903,-2.068 3.469,-2.111 1.008,-0.028 2.511,0.789 2.711,1.659 0.325,1.424 -1.449,5.747 -1.809,7.083 C 1.232,-5.081 0.237,-2.462 0,0"
             style="fill:#231f20;fill-opacity:1;fill-rule:nonzero;stroke:none"
             id="path80" /></g><g
           id="g82"
           transform="translate(422.0371,368.4756)"><path
             d="m 0,0 c -0.402,4.634 -3.407,8.077 -6.479,10.399 -4.118,3.112 -8.771,4.483 -13.867,7.083 -6.153,-5.45 -12.592,-10.611 -18.533,-16.276 1.432,-4.139 0.395,-8.463 -0.754,-12.509 -2.201,-7.76 -5.292,-15.292 -7.685,-22.303 l 38.579,0 C -11.256,-20.096 1.047,-11.955 0,0"
             style="fill:#231f20;fill-opacity:1;fill-rule:nonzero;stroke:none"
             id="path84" /></g><g
           id="g86"
           transform="translate(373.8164,332.7598)"><path
             d="m 0,0 c -0.19,-0.06 -0.309,-0.194 -0.303,-0.451 -0.769,-1.461 -1.545,-3.23 -2.412,-5.124 -0.766,-1.681 -2.117,-3.666 -2.259,-5.276 -0.069,-0.758 0.254,-1.66 0.301,-2.411 0.308,-4.843 -1.616,-11.115 -3.015,-16.576 -0.722,-2.827 -1.44,-5.316 -2.111,-7.686 -0.711,-2.531 -1.289,-5.101 -2.409,-7.383 -3.063,-6.232 -11.242,-6.962 -19.29,-7.989 -0.286,-0.035 -1.563,0.265 -1.508,-0.602 -0.122,-1.198 1.411,-0.733 1.959,-0.754 2.846,-0.103 5.332,0 8.141,0 3.763,0 8.105,-0.596 10.849,0 1.03,0.225 1.817,1.393 2.711,1.356 1.221,-0.048 1.594,-1.578 2.715,-1.507 2.356,1.301 0.45,4.766 0,6.782 2.664,7.792 6.54,16.093 8.738,24.715 0.627,2.452 0.781,4.753 1.359,6.934 1.343,5.065 4.645,10.043 7.384,13.712 0.574,0.774 1.598,1.614 1.355,2.26 L 0,0 z"
             style="fill:#231f20;fill-opacity:1;fill-rule:nonzero;stroke:none"
             id="path88" /></g><g
           id="g90"
           transform="translate(72.9023,376.2266)"><path
             d="M 0,0 C 0.263,3.725 -4.011,6.036 -7.873,6.308 -12.219,6.613 -15.414,4.551 -15.67,0.896 L -16.092,-5.106 -5.4,-5.858 c 3.171,-0.223 5.027,0.547 5.129,1.998 L 0,0 z m -20.852,-4.772 0.437,6.209 c 0.269,3.792 -1.942,5.89 -5.666,6.151 -4.346,0.305 -7.412,-1.905 -7.573,-4.182 l -0.345,-4.897 c -0.102,-1.447 1.699,-2.475 5.078,-2.713 l 8.069,-0.568 z m -8.961,-7.201 c -3.242,0.226 -5.301,-0.46 -5.673,-1.821 l -0.5,-2.183 -3.933,0.279 1.368,19.449 c 0.596,8.483 5.326,12.656 12.43,12.155 5.174,-0.362 8.103,-3.063 9.103,-4.589 l 0.069,-0.004 c 2.619,2.726 5.884,3.813 9.746,3.541 C 1.418,14.249 5.513,9.387 5.028,2.49 l -1.494,-21.244 -3.931,0.276 -0.19,2.233 c -0.228,1.68 -2.189,2.371 -5.362,2.595 l -23.864,1.677 z"
             style="fill:#231f20;fill-opacity:1;fill-rule:nonzero;stroke:none"
             id="path92" /></g><g
           id="g94"
           transform="translate(63.3789,417.8818)"><path
             d="m 0,0 -10.82,-0.056 -0.059,-0.27 9.756,-5.02 L 0,0 z m 4.572,-8.167 1.915,-0.97 c 3.781,-1.855 6.904,-1.451 7.757,-0.076 l 0.846,1.659 3.855,-0.81 -3.016,-14.347 -3.857,0.813 -0.162,1.586 c -0.185,1.807 -1.972,3.384 -8.545,6.745 l -27.121,13.829 1.324,6.295 32.603,1.481 c 4.993,0.22 7.196,0.958 7.845,2.024 l 1.142,1.739 3.858,-0.812 -3.5,-16.647 -3.858,0.81 -0.103,1.86 C 15.382,-1.115 13.794,0.066 8.424,0.066 L 6.295,0.019 4.572,-8.167 z"
             style="fill:#231f20;fill-opacity:1;fill-rule:nonzero;stroke:none"
             id="path96" /></g><g
           id="g98"
           transform="translate(57.7969,461.1953)"><path
             d="m 0,0 c -0.511,-1.358 -0.05,-2.49 3.059,-3.657 l 7.377,-2.769 2.552,6.796 C 13.788,2.506 12.633,5.523 9.139,6.836 5.06,8.366 2.527,6.732 1.725,4.595 L 0,0 z m 16.586,-8.736 8.543,-3.205 c 2.978,-1.12 5.317,-1.184 6.451,1.049 l 0.753,1.414 3.688,-1.383 -6.001,-15.988 -3.688,1.385 0.453,2.192 c 0.26,1.674 -1.423,2.897 -4.4,4.015 l -22.397,8.407 c -3.042,1.142 -5.21,1.071 -5.955,-0.129 l -1.102,-1.95 -3.689,1.387 6.852,18.252 c 3.109,8.285 8.709,10.614 15.377,8.112 5.178,-1.943 7.241,-5.303 7.677,-8.272 l 0.129,-0.049 c 2.444,1.593 5.22,1.512 8.902,0.499 3.81,-1.061 5.655,-1.458 6.044,-0.422 0.365,0.97 -1.674,2.03 -3.099,2.566 l -2.976,1.117 1.409,3.756 2.976,-1.12 C 41.531,9.52 42.938,6.187 41.504,2.367 39.756,-2.294 36.592,-3.247 28.355,-1.188 24.454,-0.168 19.988,0.326 18.87,-2.649 l -2.284,-6.087 z"
             style="fill:#231f20;fill-opacity:1;fill-rule:nonzero;stroke:none"
             id="path100" /></g><g
           id="g102"
           transform="translate(76.5508,495.5059)"><path
             d="m 0,0 c -2.846,1.569 -5.003,1.812 -5.912,0.733 l -1.371,-1.77 -3.451,1.902 8.046,14.592 3.451,-1.903 -0.767,-2.104 C -0.428,10.104 0.928,8.411 3.772,6.841 L 23.146,-3.842 c 3.452,-1.902 5.856,-2.122 8.292,2.296 2.337,4.24 1.781,6.522 -1.125,8.125 l -3.331,1.834 2.102,3.816 12.412,-6.845 -14.086,-25.55 -3.451,1.903 0.764,2.105 c 0.5,1.621 -0.991,3.072 -3.776,4.608 L 0,0 z"
             style="fill:#231f20;fill-opacity:1;fill-rule:nonzero;stroke:none"
             id="path104" /></g><g
           id="g106"
           transform="translate(112.4414,528.8047)"><path
             d="m 0,0 9.16,-6.685 c 2.236,-1.63 4.466,-1.976 6.545,0.873 2.853,3.911 0.698,6.938 -2.766,9.465 l -2.736,1.998 2.568,3.518 12.623,-9.211 -16.019,-21.949 -3.186,2.321 1.027,1.991 c 0.755,1.504 -0.595,3.174 -3.164,5.05 L -15.272,1.475 c -2.624,1.916 -4.732,2.427 -5.773,1.473 l -1.584,-1.584 -3.182,2.324 16.019,21.95 12.176,-8.887 -2.57,-3.519 -2.345,1.712 c -4.189,3.058 -7.996,2.413 -9.912,-0.211 -2.078,-2.849 -1.35,-4.666 1.218,-6.541 L -3.964,2.894 0.071,8.424 4.035,5.528 0,0 z"
             style="fill:#231f20;fill-opacity:1;fill-rule:nonzero;stroke:none"
             id="path108" /></g><g
           id="g110"
           transform="translate(109.1465,562.6074)"><path
             d="M 0,0 11.412,12.144 14.285,9.445 13.068,7.646 C 12.229,6.349 12.8,5.241 14.575,4.808 L 23.45,2.539 20.693,11.014 C 20.146,12.856 19,13.556 17.898,12.786 l -1.72,-1.326 -2.871,2.7 9.422,10.028 2.872,-2.699 -1.358,-1.951 c -0.514,-0.749 -0.087,-1.91 0.349,-3.363 l 4.873,-15.112 9.474,-8.902 c 2.319,-2.178 4.159,-3.146 5.595,-2.125 l 1.766,1.376 2.872,-2.699 -11.458,-12.195 -2.872,2.699 1.262,1.849 c 0.932,1.497 -0.151,3.274 -2.468,5.451 l -7.308,6.866 -16.183,4.486 C 7.329,-1.29 5.451,-0.661 4.306,-1.579 L 2.873,-2.699 0,0 z"
             style="fill:#231f20;fill-opacity:1;fill-rule:nonzero;stroke:none"
             id="path112" /></g><g
           id="g114"
           transform="translate(160.8359,598.7393)"><path
             d="M 0,0 C -1.934,2.612 -3.793,3.73 -5.069,3.13 L -7.054,2.092 -9.399,5.261 3.997,15.174 6.341,12.005 4.769,10.41 C 3.821,9.366 4.348,7.26 6.279,4.649 l 13.164,-17.786 c 2.344,-3.169 4.438,-4.371 8.496,-1.368 3.89,2.88 4.334,5.187 2.36,7.855 l -2.262,3.056 3.501,2.592 8.433,-11.394 -23.453,-17.359 -2.346,3.168 1.574,1.594 c 1.127,1.265 0.379,3.208 -1.514,5.763 L 0,0 z"
             style="fill:#231f20;fill-opacity:1;fill-rule:nonzero;stroke:none"
             id="path116" /></g><g
           id="g118"
           transform="translate(207.3477,614.0645)"><path
             d="m 0,0 5.544,-9.892 c 1.352,-2.414 3.236,-3.656 6.313,-1.931 4.222,2.363 3.524,6.013 1.43,9.755 l -1.656,2.957 3.8,2.128 7.637,-13.633 -23.708,-13.281 -1.926,3.438 1.762,1.382 c 1.312,1.053 0.782,3.134 -0.773,5.909 L -13.271,7.704 c -1.587,2.835 -3.292,4.18 -4.633,3.744 l -2.098,-0.779 -1.927,3.437 23.706,13.282 7.369,-13.151 -3.8,-2.129 -1.42,2.535 C 1.391,19.165 -2.339,20.166 -5.175,18.578 -8.253,16.854 -8.346,14.9 -6.791,12.127 L -2.398,4.284 3.573,7.629 5.974,3.346 0,0 z"
             style="fill:#231f20;fill-opacity:1;fill-rule:nonzero;stroke:none"
             id="path120" /></g><g
           id="g122"
           transform="translate(263.707,617.4248)"><path
             d="m 0,0 -3.406,-1.354 c -0.489,0.476 -1.167,0.875 -1.873,0.596 -0.707,-0.281 -1.43,-1.088 -2.28,-1.945 -0.848,-0.86 -2.763,-1.844 -4.82,-2.66 -9.64,-3.83 -16.764,2.865 -19.877,10.706 l -4.263,10.731 c -2.883,7.261 -0.883,16.465 7.535,19.807 1.865,0.741 3.778,0.978 5.691,0.847 1.206,-0.041 2.555,-0.251 3.519,0.131 0.77,0.307 0.543,1.63 0.211,2.466 l 4.37,1.736 7.58,-19.086 -6.618,-2.63 c -2.591,6.338 -8.082,14.351 -13.093,12.358 -3.856,-1.53 -3.223,-5.371 -1.795,-8.971 l 6.79,-17.093 c 1.43,-3.599 5.232,-8.116 9.346,-6.483 2.761,1.1 5.375,3.325 3.255,8.66 -0.969,2.442 -2.381,2.997 -3.666,2.488 l -1.029,-0.409 -1.938,4.884 13.173,5.233 1.94,-4.884 -2.185,-0.868 C -4.975,13.646 -4.774,12.016 -4.032,10.152 L 0,0 z"
             style="fill:#231f20;fill-opacity:1;fill-rule:nonzero;stroke:none"
             id="path124" /></g><g
           id="g126"
           transform="translate(285.5059,644.5361)"><path
             d="M 0,0 -4.709,9.742 -4.978,9.677 -5.309,-1.288 0,0 z M -5.402,-7.644 -5.45,-9.789 c -0.046,-4.21 1.662,-6.856 3.269,-7.033 l 1.862,-0.046 0.929,-3.831 -14.247,-3.455 -0.926,3.83 1.364,0.828 c 1.548,0.946 2.202,3.236 2.405,10.616 l 0.8,30.433 6.25,1.516 15.377,-28.787 c 2.35,-4.41 3.966,-6.082 5.207,-6.208 l 2.06,-0.283 0.929,-3.831 -16.531,-4.008 -0.929,3.829 1.634,0.895 c 1.616,0.961 1.999,2.904 -0.315,7.751 l -0.959,1.902 -8.131,-1.973 z"
             style="fill:#231f20;fill-opacity:1;fill-rule:nonzero;stroke:none"
             id="path128" /></g><g
           id="g130"
           transform="translate(312.0801,663.3633)"><path
             d="M 0,0 C -0.328,3.233 -1.355,5.146 -2.759,5.28 L -4.996,5.401 -5.393,9.323 11.187,11.001 11.583,7.08 9.418,6.514 C 8.068,6.099 7.445,4.021 7.773,0.786 L 10,-21.226 c 0.398,-3.92 1.583,-6.024 6.604,-5.515 4.817,0.486 6.376,2.243 6.042,5.545 l -0.383,3.783 4.333,0.437 1.428,-14.101 -29.029,-2.938 -0.397,3.921 2.167,0.566 c 1.615,0.512 1.964,2.562 1.643,5.728 L 0,0 z"
             style="fill:#231f20;fill-opacity:1;fill-rule:nonzero;stroke:none"
             id="path132" /></g><g
           id="g134"
           transform="translate(371.3789,657.2559)"><path
             d="m 0,0 11.311,-0.835 0.615,8.345 c 0.238,3.241 -0.442,5.301 -1.937,5.687 l -2.114,0.505 0.291,3.93 16.617,-1.227 -0.29,-3.93 -2.161,-0.187 C 20.863,12.119 19.887,10.18 19.648,6.938 l -1.76,-23.858 c -0.235,-3.172 0.171,-5.212 1.868,-5.684 l 2.112,-0.502 -0.29,-3.931 -16.618,1.226 0.289,3.932 2.165,0.187 c 1.818,0.211 2.516,2.171 2.75,5.341 l 0.696,9.45 -11.307,0.832 -0.697,-9.446 c -0.234,-3.172 0.169,-5.213 1.869,-5.684 l 2.181,-0.508 -0.291,-3.931 -16.687,1.233 0.291,3.929 2.231,0.183 c 1.68,0.222 2.378,2.181 2.613,5.353 l 1.762,23.858 c 0.239,3.241 -0.442,5.302 -1.801,5.681 l -2.18,0.506 0.291,3.931 L 5.752,17.811 5.461,13.88 3.3,13.692 C 1.83,13.523 0.855,11.585 0.616,8.343 L 0,0 z"
             style="fill:#231f20;fill-opacity:1;fill-rule:nonzero;stroke:none"
             id="path136" /></g><g
           id="g138"
           transform="translate(412.1621,640.0928)"><path
             d="m 0,0 c -1.079,-4.931 -1.282,-9.415 2.771,-10.303 3.985,-0.871 5.814,3.613 6.819,8.205 l 3.93,17.966 c 0.829,3.782 0.83,7.675 -3.156,8.548 C 6.313,25.302 4.756,21.748 3.93,17.967 L 0,0 z m 19.25,-1.945 c -1.795,-8.527 -8.914,-14.539 -17.425,-12.679 -8.442,1.845 -12.787,9.167 -10.71,18.336 l 2.891,12.886 C -4.251,24.569 2.882,30.651 11.325,28.806 19.77,26.958 23.747,18.94 21.967,10.481 L 19.25,-1.945 z"
             style="fill:#231f20;fill-opacity:1;fill-rule:nonzero;stroke:none"
             id="path140" /></g><g
           id="g142"
           transform="translate(446.7764,627.168)"><path
             d="m 0,0 c -1.133,-2.972 -1.304,-4.978 0.163,-5.98 l 1.299,-0.866 -1.403,-3.684 -11.826,4.505 1.403,3.684 2.191,-0.466 c 1.675,-0.266 2.906,1.411 4.037,4.382 l 8.516,22.36 c 1.157,3.036 1.096,5.206 -0.1,5.958 l -1.943,1.109 1.402,3.684 14.475,-5.515 -3.55,-21.363 11.368,18.385 14.152,-5.388 -1.402,-3.685 -2.19,0.465 C 35.201,17.819 33.711,16.24 32.554,13.204 L 24.038,-9.154 c -1.132,-2.974 -1.328,-5.044 0.165,-5.982 l 1.943,-1.111 -1.403,-3.684 -14.992,5.709 1.404,3.685 1.545,-0.218 c 1.764,-0.229 2.969,1.383 4.102,4.357 l 8.515,22.358 -0.129,0.049 -18.15,-29.197 -4.2,1.601 L 8.646,22.31 8.516,22.36 0,0 z"
             style="fill:#231f20;fill-opacity:1;fill-rule:nonzero;stroke:none"
             id="path144" /></g><g
           id="g146"
           transform="translate(497.1738,616.5088)"><path
             d="m 0,0 -5.499,-9.918 c -1.341,-2.418 -1.407,-4.676 1.675,-6.385 4.234,-2.346 6.971,0.167 9.052,3.915 l 1.643,2.964 3.809,-2.113 -7.577,-13.666 -23.766,13.179 1.912,3.446 2.102,-0.77 c 1.586,-0.564 3.075,0.983 4.618,3.764 l 11.603,20.922 c 1.575,2.843 1.823,4.999 0.747,5.91 l -1.766,1.376 1.911,3.448 23.763,-13.18 -7.309,-13.181 -3.81,2.111 1.408,2.541 c 2.515,4.535 1.406,8.235 -1.437,9.811 -3.084,1.709 -4.796,0.762 -6.339,-2.02 L 2.381,4.294 8.368,0.974 5.987,-3.321 0,0 z"
             style="fill:#231f20;fill-opacity:1;fill-rule:nonzero;stroke:none"
             id="path148" /></g><g
           id="g150"
           transform="translate(531.168,600.7646)"><path
             d="m 0,0 4.992,-3.714 c 3.053,-2.269 6.007,-1.539 8.236,1.455 2.6,3.493 2.392,7.268 0.561,8.63 L 9.85,9.302 C 8.686,10.168 6.85,9.208 4.829,6.489 L 0,0 z m -7.224,-20.135 c 2.995,-2.226 7.245,0.125 9.556,3.233 2.599,3.494 2.586,7.297 -0.353,9.483 l -4.827,3.591 -6.398,-8.598 c -1.898,-2.55 -2.25,-4.53 -1.084,-5.396 l 3.106,-2.313 z m 5.991,31.566 c 1.939,2.606 2.47,4.711 1.526,5.758 l -1.567,1.598 2.35,3.162 15.643,-11.639 c 6.824,-5.076 7.787,-11.308 3.537,-17.022 -3.096,-4.161 -6.95,-5.17 -8.776,-5.192 l -0.041,-0.055 c 0.886,-3.674 0.041,-7.012 -2.27,-10.117 -5.159,-6.933 -11.461,-7.76 -17.009,-3.632 l -17.084,12.712 2.354,3.162 1.98,-1.045 c 1.537,-0.713 3.178,0.566 5.076,3.117 l 14.281,19.193 z"
             style="fill:#231f20;fill-opacity:1;fill-rule:nonzero;stroke:none"
             id="path152" /></g><g
           id="g154"
           transform="translate(574.9756,579.8389)"><path
             d="m 0,0 c -1.022,1.03 -2.245,1.086 -4.601,-1.25 l -5.601,-5.55 5.113,-5.156 c 1.605,-1.62 4.83,-1.831 7.484,0.798 3.093,3.066 2.667,6.051 1.062,7.672 L 0,0 z m -14.867,-11.424 -6.484,-6.423 c -2.257,-2.24 -3.294,-4.337 -1.738,-6.3 l 0.971,-1.276 -2.799,-2.773 -12.021,12.13 2.798,2.775 1.803,-1.329 c 1.414,-0.935 3.229,0.083 5.487,2.323 L -9.855,4.542 c 2.307,2.288 3.147,4.29 2.37,5.467 l -1.311,1.813 2.799,2.777 L 7.728,0.747 c 6.23,-6.285 6.007,-12.349 0.949,-17.362 -3.93,-3.893 -7.843,-4.365 -10.723,-3.522 l -0.1,-0.095 c 0.428,-2.887 -0.806,-5.375 -3.263,-8.296 -2.557,-3.021 -3.688,-4.533 -2.909,-5.319 0.729,-0.735 2.546,0.675 3.626,1.744 l 2.259,2.24 2.824,-2.848 -2.259,-2.24 c -6.828,-6.766 -10.445,-6.653 -13.318,-3.754 -3.504,3.537 -3.049,6.811 2.261,13.435 2.557,3.12 4.872,6.971 2.634,9.23 l -4.576,4.616 z"
             style="fill:#231f20;fill-opacity:1;fill-rule:nonzero;stroke:none"
             id="path156" /></g><g
           id="g158"
           transform="translate(591.2539,535.8018)"><path
             d="m 0,0 -9.049,-6.837 c -2.208,-1.665 -3.182,-3.702 -1.058,-6.516 2.919,-3.863 6.442,-2.674 9.862,-0.091 l 2.704,2.043 2.625,-3.476 -12.468,-9.421 -16.382,21.685 3.145,2.376 1.61,-1.558 c 1.221,-1.158 3.21,-0.348 5.748,1.569 l 19.09,14.422 c 2.595,1.958 3.694,3.828 3.081,5.099 L 7.85,21.271 10.994,23.646 27.376,1.962 15.348,-7.126 12.721,-3.65 15.04,-1.898 c 4.14,3.126 4.623,6.959 2.663,9.552 -2.126,2.814 -4.075,2.641 -6.613,0.723 L 3.916,2.959 8.045,-2.504 4.126,-5.463 0,0 z"
             style="fill:#231f20;fill-opacity:1;fill-rule:nonzero;stroke:none"
             id="path160" /></g><g
           id="g162"
           transform="translate(647.1953,488.6865)"><path
             d="m 0,0 -3.46,-1.887 -1.33,1.715 c -1.171,1.568 -3.841,0.978 -8.366,-0.547 l -30.481,-10.247 -2.681,4.915 20.233,17.339 -24.77,-9.022 -2.681,4.916 26.727,23.48 c 1.798,1.611 3.129,3.361 2.616,4.734 l -0.723,2.047 3.459,1.889 7.615,-13.962 -3.459,-1.888 -1.362,1.778 c -0.879,1.176 -1.877,0.552 -4.156,-1.479 l -13.259,-11.642 24.556,8.983 2.847,-5.22 -20.206,-17.245 16.173,5.437 c 3.089,0.978 4.329,1.733 3.613,3.625 l -0.723,2.049 3.46,1.886 L 0,0 z"
             style="fill:#231f20;fill-opacity:1;fill-rule:nonzero;stroke:none"
             id="path164" /></g><g
           id="g166"
           transform="translate(634.2031,457.8105)"><path
             d="m 0,0 -10.664,-3.85 c -2.602,-0.94 -4.135,-2.594 -2.939,-5.913 1.646,-4.552 5.36,-4.459 9.393,-3.005 l 3.188,1.152 1.478,-4.098 -14.697,-5.307 -9.228,25.558 3.707,1.338 1.075,-1.964 c 0.824,-1.467 2.964,-1.282 5.955,-0.203 l 22.501,8.127 c 3.055,1.103 4.659,2.564 4.45,3.958 l -0.426,2.198 3.707,1.34 9.227,-25.559 -14.176,-5.117 -1.481,4.097 2.733,0.985 c 4.877,1.762 6.474,5.279 5.369,8.334 -1.195,3.316 -3.109,3.729 -6.1,2.649 L 4.618,1.667 6.941,-4.77 2.324,-6.438 0,0 z"
             style="fill:#231f20;fill-opacity:1;fill-rule:nonzero;stroke:none"
             id="path168" /></g><g
           id="g170"
           transform="translate(661.9717,423.6855)"><path
             d="m 0,0 c -0.296,1.422 -1.291,2.134 -4.54,1.458 l -7.717,-1.604 1.479,-7.109 c 0.463,-2.233 3.055,-4.167 6.71,-3.406 4.265,0.887 5.532,3.622 5.067,5.856 L 0,0 z m -18.688,-1.483 -8.936,-1.859 c -3.113,-0.647 -5.124,-1.843 -4.888,-4.336 l 0.12,-1.6 -3.859,-0.801 -3.475,16.721 3.858,0.802 0.789,-2.096 c 0.676,-1.554 2.752,-1.687 5.866,-1.04 l 23.421,4.868 c 3.182,0.663 4.975,1.884 4.964,3.293 l -0.111,2.237 3.858,0.803 3.969,-19.09 c 1.802,-8.664 -1.685,-13.626 -8.658,-15.076 -5.415,-1.125 -8.954,0.61 -10.91,2.885 l -0.135,-0.028 c -1.213,-2.652 -3.604,-4.067 -7.256,-5.179 -3.788,-1.142 -5.559,-1.792 -5.335,-2.875 0.211,-1.016 2.502,-0.822 3.99,-0.513 l 3.115,0.647 0.816,-3.926 -3.114,-0.647 c -9.409,-1.956 -12.381,0.109 -13.212,4.104 -1.013,4.874 1.152,7.372 9.212,10.036 3.843,1.221 7.882,3.192 7.235,6.306 l -1.324,6.364 z"
             style="fill:#231f20;fill-opacity:1;fill-rule:nonzero;stroke:none"
             id="path172" /></g><g
           id="g174"
           transform="translate(662.498,364.5977)"><path
             d="m 0,0 c 2.041,0.61 3.922,1.557 5.17,2.672 1.512,1.339 3.581,4.86 3.4,7.827 -0.235,3.865 -3.312,5.478 -6.003,5.314 -3.938,-0.172 -5.029,-2.733 -6.226,-8.07 -2.14,-9.205 -5.62,-13.434 -13.902,-13.941 -7.797,-0.476 -13.371,4.586 -13.8,11.625 -0.162,2.622 0.592,5.023 1.259,6.588 0.663,1.634 1.206,2.914 1.14,4.018 -0.068,1.103 -1.494,1.779 -2.775,2.323 l -0.21,3.451 14.838,0.905 0.21,-3.449 c -1.843,-0.459 -3.319,-1.242 -4.978,-2.45 -2.654,-1.894 -4.721,-5.484 -4.434,-10.177 0.178,-2.899 2.792,-4.887 5.552,-4.718 3.935,0.24 5.367,4 6.195,6.336 l 1.878,5.518 c 2.245,6.37 5.956,9.09 12.856,9.512 C 7.485,23.731 12.382,18.42 12.799,11.59 12.929,9.449 12.654,7.147 12.32,5.811 12.043,4.685 11.762,3.629 11.824,2.594 11.875,1.765 12.461,1.247 12.974,0.792 L 13.18,-2.589 0.206,-3.381 0,0 z"
             style="fill:#231f20;fill-opacity:1;fill-rule:nonzero;stroke:none"
             id="path176" /></g><g
           id="g178"
           transform="translate(48.5254,313.9482)"><path
             d="M 0,0 0.846,11.207 -9.559,15.477 1.369,18.138 2.215,29.346 8.126,19.789 19.053,22.448 11.771,13.867 17.682,4.291 7.278,8.561 0,0 z"
             style="fill:#231f20;fill-opacity:1;fill-rule:nonzero;stroke:none"
             id="path180" /></g><g
           id="g182"
           transform="translate(651.4678,322.5088)"><path
             d="m 0,0 -10.403,-4.27 5.91,9.577 -7.281,8.581 10.926,-2.659 5.913,9.556 L 5.909,9.577 16.838,6.916 6.433,2.646 7.278,-8.561 0,0 z"
             style="fill:#231f20;fill-opacity:1;fill-rule:nonzero;stroke:none"
             id="path184" /></g><g
           id="g186"
           transform="translate(67.9033,287.1016)"><path
             d="M 0,0 C 1.034,0.493 1.956,1.148 2.528,1.844 3.222,2.68 4.032,4.721 3.693,6.284 3.252,8.317 1.483,8.923 0.065,8.614 -2.013,8.2 -2.382,6.75 -2.581,3.814 c -0.381,-5.067 -1.884,-7.6 -6.244,-8.549 -4.106,-0.893 -7.484,1.341 -8.289,5.046 -0.301,1.381 -0.097,2.718 0.129,3.605 0.218,0.923 0.403,1.647 0.276,2.228 -0.126,0.582 -0.94,0.824 -1.666,1.007 l -0.395,1.818 7.811,1.7 0.396,-1.816 c -0.941,-0.396 -1.663,-0.934 -2.444,-1.712 -1.256,-1.225 -2.058,-3.302 -1.521,-5.773 0.332,-1.525 1.884,-2.368 3.338,-2.052 2.07,0.452 2.523,2.566 2.771,3.876 l 0.546,3.086 c 0.671,3.571 2.42,5.321 6.053,6.112 C 2.031,13.228 5.069,10.806 5.853,7.209 6.098,6.083 6.14,4.837 6.071,4.099 6.017,3.478 5.954,2.894 6.071,2.349 6.166,1.913 6.521,1.686 6.831,1.487 L 7.217,-0.295 0.388,-1.779 0,0 z"
             style="fill:#231f20;fill-opacity:1;fill-rule:nonzero;stroke:none"
             id="path188" /></g><g
           id="g190"
           transform="translate(62.4336,271.7412)"><path
             d="m 0,0 c -2.605,-0.764 -4.771,-1.825 -4.145,-3.965 0.619,-2.105 3.206,-1.811 5.631,-1.099 l 9.487,2.785 c 1.998,0.586 3.834,1.59 3.215,3.693 -0.625,2.141 -2.704,1.957 -4.702,1.371 L 0,0 z m 4.051,-9.58 c -4.484,-1.356 -9.158,0.45 -10.477,4.943 -1.308,4.459 1.022,8.397 5.883,9.785 L 6.28,7.112 C 10.488,8.348 15.199,6.553 16.507,2.094 17.816,-2.363 15.061,-6.31 10.613,-7.653 L 4.051,-9.58 z"
             style="fill:#231f20;fill-opacity:1;fill-rule:nonzero;stroke:none"
             id="path192" /></g><g
           id="g194"
           transform="translate(81.8691,263.2041)"><path
             d="M 0,0 3.123,-8.399 1.137,-9.138 0.548,-8.087 c -0.399,0.646 -1.566,0.689 -3.202,0.079 l -7.425,-2.76 c -5.472,-2.033 -7.407,-3.23 -6.358,-6.052 0.673,-1.813 2.267,-2.688 6.66,-1.056 l 9.479,3.524 c 1.324,0.493 2.57,1.195 2.349,2.221 l -0.229,1.147 1.988,0.738 2.499,-6.727 -1.986,-0.738 -0.589,1.051 c -0.488,0.889 -1.89,0.605 -3.215,0.113 l -8.888,-3.303 c -6.552,-2.437 -9.055,-1.145 -10.39,2.444 -2.046,5.507 0.28,7.999 6.38,10.265 l 8.26,3.071 c 1.638,0.609 2.493,1.403 2.373,2.153 L -1.986,-0.739 0,0 z"
             style="fill:#231f20;fill-opacity:1;fill-rule:nonzero;stroke:none"
             id="path196" /></g><g
           id="g198"
           transform="translate(89.5068,243.1182)"><path
             d="m 0,0 6.614,-14.553 -8.494,-3.86 -0.908,1.996 1.896,0.861 c 1.995,0.909 3.964,2.417 3.303,3.871 -0.585,1.287 -2.642,0.514 -3.928,-0.071 l -10.83,-4.922 c -1.556,-0.707 -2.416,-1.425 -2.183,-2.381 l 0.306,-1.127 -1.929,-0.877 -3.723,8.191 1.929,0.876 0.662,-1.006 c 0.554,-0.769 1.658,-0.593 3.216,0.114 l 10.83,4.923 c 1.284,0.584 3.22,1.627 2.635,2.913 -0.661,1.454 -3.09,0.964 -5.088,0.057 L -7.588,-5.858 -8.495,-3.861 0,0 z"
             style="fill:#231f20;fill-opacity:1;fill-rule:nonzero;stroke:none"
             id="path200" /></g><g
           id="g202"
           transform="translate(92.2012,214.9961)"><path
             d="m 0,0 2.929,-5.348 3.944,2.16 c 1.533,0.84 2.264,1.75 2.002,2.539 L 8.484,0.45 10.343,1.468 14.646,-6.39 12.788,-7.407 12.071,-6.486 C 11.566,-5.873 10.405,-6 8.873,-6.839 l -11.282,-6.178 c -1.499,-0.821 -2.303,-1.599 -2.019,-2.504 l 0.392,-1.1 -1.86,-1.018 -4.303,7.858 1.858,1.016 0.717,-0.921 c 0.627,-0.757 1.716,-0.502 3.216,0.32 l 4.467,2.447 -2.928,5.348 -4.467,-2.448 C -8.837,-4.84 -9.64,-5.617 -9.356,-6.522 l 0.409,-1.134 -1.86,-1.017 -4.32,7.891 1.858,1.017 0.735,-0.954 c 0.592,-0.693 1.679,-0.436 3.179,0.386 L 1.928,5.845 C 3.459,6.683 4.191,7.594 3.963,8.316 L 3.556,9.449 5.414,10.468 9.717,2.609 7.859,1.592 7.143,2.513 C 6.637,3.126 5.477,3 3.944,2.159 L 0,0 z"
             style="fill:#231f20;fill-opacity:1;fill-rule:nonzero;stroke:none"
             id="path204" /></g><g
           id="g206"
           transform="translate(105.6328,181.7891)"><path
             d="m 0,0 c -3.488,-2.342 -7.301,-3.468 -10.14,0.762 -2.548,3.797 -1.249,6.999 1.807,9.051 2.068,1.386 3.73,1.249 4.62,-0.08 C -3.029,8.714 -3.045,7.404 -3.971,6.784 -4.588,6.37 -5.218,6.171 -6.021,6.303 -6.725,6.414 -7.415,6.442 -7.97,6.068 -8.618,5.634 -8.831,4.148 -8.044,2.975 c 0.933,-1.388 2.605,-1.611 6.865,1.25 l 7.47,5.013 c 1.482,0.995 2.129,1.967 1.839,2.667 l -0.509,1.092 1.76,1.18 5.015,-7.47 -1.761,-1.182 -0.817,0.884 C 11.26,6.976 10.096,6.775 8.611,5.781 L 0,0 z"
             style="fill:#231f20;fill-opacity:1;fill-rule:nonzero;stroke:none"
             id="path208" /></g><g
           id="g210"
           transform="translate(116.1152,173.0479)"><path
             d="m 0,0 -4.833,-3.717 c -1.179,-0.907 -1.693,-2.008 -0.538,-3.511 1.587,-2.061 3.476,-1.407 5.304,-0.002 l 1.444,1.111 1.428,-1.856 -6.661,-5.123 -8.908,11.582 1.679,1.291 0.872,-0.829 c 0.662,-0.617 1.729,-0.173 3.084,0.871 L 3.067,7.659 c 1.385,1.066 1.967,2.075 1.632,2.757 L 4.121,11.472 5.8,12.764 14.709,1.182 8.285,-3.759 6.857,-1.902 8.095,-0.951 c 2.21,1.701 2.452,3.764 1.387,5.149 -1.156,1.501 -2.203,1.4 -3.559,0.359 L 2.093,1.609 4.337,-1.309 2.244,-2.918 0,0 z"
             style="fill:#231f20;fill-opacity:1;fill-rule:nonzero;stroke:none"
             id="path212" /></g><g
           id="g214"
           transform="translate(136.0762,163.1055)"><path
             d="m 0,0 c -0.521,0.582 -1.176,0.645 -2.506,-0.544 l -3.16,-2.825 2.602,-2.909 c 0.818,-0.916 2.543,-1.118 4.041,0.219 1.746,1.562 1.6,3.175 0.782,4.09 L 0,0 z m -8.299,-5.724 -3.659,-3.27 c -1.275,-1.14 -1.89,-2.237 -1.108,-3.335 l 0.487,-0.711 -1.579,-1.414 -6.122,6.848 1.58,1.413 0.931,-0.763 c 0.733,-0.542 1.736,-0.046 3.011,1.094 l 9.59,8.574 c 1.303,1.164 1.811,2.215 1.425,2.869 l -0.653,1.011 1.58,1.412 6.987,-7.816 c 3.172,-3.548 2.885,-6.798 0.028,-9.35 -2.216,-1.983 -4.332,-2.126 -5.855,-1.593 l -0.056,-0.051 c 0.15,-1.562 -0.581,-2.864 -1.981,-4.365 -1.457,-1.55 -2.105,-2.33 -1.71,-2.774 0.373,-0.416 1.386,0.292 1.997,0.836 l 1.275,1.139 1.437,-1.607 -1.275,-1.14 c -3.854,-3.444 -5.794,-3.283 -7.256,-1.647 -1.783,1.996 -1.449,3.74 1.586,7.151 1.459,1.605 2.809,3.609 1.669,4.885 l -2.329,2.604 z"
             style="fill:#231f20;fill-opacity:1;fill-rule:nonzero;stroke:none"
             id="path216" /></g><g
           id="g218"
           transform="translate(153.9736,139.2578)"><path
             d="M 0,0 C 0.585,0.983 0.985,2.044 1.073,2.938 1.184,4.019 0.722,6.165 -0.431,7.274 -1.93,8.718 -3.735,8.235 -4.74,7.191 -6.235,5.689 -5.736,4.279 -4.267,1.731 c 2.504,-4.419 2.665,-7.362 -0.427,-10.576 -2.912,-3.026 -6.96,-3.051 -9.694,-0.424 -1.016,0.981 -1.592,2.206 -1.899,3.067 -0.331,0.888 -0.582,1.593 -1.009,2.004 -0.429,0.414 -1.24,0.16 -1.944,-0.089 l -1.34,1.289 5.541,5.759 1.339,-1.289 c -0.562,-0.852 -0.861,-1.7 -1.076,-2.782 -0.362,-1.714 0.127,-3.887 1.947,-5.64 1.127,-1.082 2.885,-0.917 3.915,0.154 1.47,1.525 0.669,3.536 0.145,4.76 l -1.264,2.868 c -1.431,3.339 -0.952,5.765 1.626,8.443 2.732,2.841 6.601,2.52 9.254,-0.031 C 1.677,8.444 2.406,7.433 2.76,6.782 3.061,6.236 3.333,5.717 3.734,5.328 4.056,5.021 4.478,5.028 4.845,5.035 L 6.156,3.772 1.312,-1.264 0,0 z"
             style="fill:#231f20;fill-opacity:1;fill-rule:nonzero;stroke:none"
             id="path220" /></g><g
           id="g222"
           transform="translate(160.6563,126.165)"><path
             d="m 0,0 -3.929,-4.663 c -0.958,-1.138 -1.225,-2.321 0.224,-3.541 1.99,-1.677 3.695,-0.635 5.18,1.128 l 1.171,1.393 1.792,-1.508 -5.413,-6.425 -11.171,9.412 1.365,1.62 1.029,-0.625 c 0.779,-0.461 1.725,0.2 2.826,1.508 l 8.287,9.836 c 1.125,1.337 1.479,2.448 1.006,3.042 L 1.578,12.085 2.941,13.705 14.114,4.293 8.893,-1.904 7.102,-0.396 8.108,0.799 C 9.904,2.932 9.701,4.997 8.365,6.123 6.916,7.345 5.914,7.021 4.813,5.715 L 1.699,2.02 4.514,-0.354 2.813,-2.372 0,0 z"
             style="fill:#231f20;fill-opacity:1;fill-rule:nonzero;stroke:none"
             id="path224" /></g><g
           id="g226"
           transform="translate(177.0381,128.5938)"><path
             d="M 0,0 7.212,-5.317 5.954,-7.023 4.916,-6.488 c -0.745,0.366 -1.301,-0.01 -1.42,-0.986 l -0.643,-4.882 4.348,2.012 c 0.947,0.409 1.247,1.066 0.768,1.605 l -0.818,0.833 1.257,1.706 5.955,-4.391 -1.258,-1.705 -1.127,0.601 c -0.433,0.225 -1.026,-0.076 -1.774,-0.401 l -7.756,-3.566 -4.147,-5.625 c -1.017,-1.376 -1.416,-2.421 -0.779,-3.122 l 0.847,-0.856 -1.257,-1.706 -7.242,5.34 1.259,1.706 1.067,-0.556 c 0.86,-0.403 1.738,0.289 2.752,1.666 l 3.2,4.337 1.362,8.928 c 0.27,1.556 0.485,2.598 -0.077,3.152 L -1.258,-1.706 0,0 z"
             style="fill:#231f20;fill-opacity:1;fill-rule:nonzero;stroke:none"
             id="path228" /></g><g
           id="g230"
           transform="translate(192,110.4033)"><path
             d="M 0,0 C 1.156,-0.407 2.291,-0.309 3.327,0.789 2.966,0.85 2.729,0.961 2.387,1.187 1.579,1.719 1.316,2.737 2.012,3.793 2.77,4.942 4.046,5.391 5.101,4.695 6.529,3.755 6.526,2.198 5.523,0.676 3.887,-1.807 1.322,-2.387 -0.88,-1.336 L 0,0 z"
             style="fill:#231f20;fill-opacity:1;fill-rule:nonzero;stroke:none"
             id="path232" /></g><g
           id="g234"
           transform="translate(208.9609,98.8447)"><path
             d="M 0,0 C 0.345,1.094 0.491,2.216 0.371,3.107 0.23,4.186 -0.711,6.169 -2.087,6.983 -3.879,8.044 -5.523,7.161 -6.263,5.913 -7.374,4.109 -6.564,2.851 -4.55,0.707 c 3.452,-3.728 4.284,-6.555 2.011,-10.394 -2.14,-3.614 -6.074,-4.566 -9.337,-2.635 -1.216,0.72 -2.058,1.781 -2.554,2.549 -0.525,0.787 -0.931,1.417 -1.443,1.719 -0.512,0.303 -1.242,-0.128 -1.871,-0.534 l -1.599,0.947 4.072,6.877 1.599,-0.946 c -0.351,-0.958 -0.447,-1.853 -0.41,-2.954 0.042,-1.754 1.016,-3.756 3.192,-5.045 1.343,-0.794 3.016,-0.23 3.774,1.049 1.08,1.823 -0.16,3.595 -0.951,4.668 l -1.889,2.501 c -2.159,2.922 -2.249,5.393 -0.356,8.592 2.009,3.391 5.849,3.968 9.016,2.092 C -0.304,8.607 0.638,7.789 1.131,7.238 1.548,6.774 1.934,6.33 2.414,6.045 2.798,5.819 3.205,5.924 3.562,6.014 L 5.129,5.087 1.567,-0.928 0,0 z"
             style="fill:#231f20;fill-opacity:1;fill-rule:nonzero;stroke:none"
             id="path236" /></g><g
           id="g238"
           transform="translate(224.1572,92.6621)"><path
             d="M 0,0 C 0.748,1.579 0.806,2.744 0.197,3.196 L -0.798,3.874 0.108,5.788 8.206,1.954 7.299,0.038 6.145,0.38 C 5.409,0.564 4.544,-0.221 3.797,-1.799 l -5.093,-10.753 c -0.905,-1.915 -0.945,-3.213 1.508,-4.374 2.352,-1.113 3.559,-0.739 4.321,0.874 l 0.876,1.848 2.116,-1.003 -3.261,-6.888 -14.179,6.715 0.906,1.916 1.155,-0.342 c 0.886,-0.214 1.617,0.633 2.349,2.18 L 0,0 z"
             style="fill:#231f20;fill-opacity:1;fill-rule:nonzero;stroke:none"
             id="path240" /></g><g
           id="g242"
           transform="translate(246.5781,74.9219)"><path
             d="M 0,0 0.916,5.745 0.778,5.8 -2.736,1.064 0,0 z m -4.733,-1.709 -0.681,-0.933 c -1.315,-1.839 -1.373,-3.532 -0.719,-4.105 l 0.806,-0.593 -0.768,-1.975 -7.343,2.855 0.767,1.975 0.857,-0.054 c 0.972,-0.059 1.965,0.751 4.323,3.942 L 2.217,12.577 5.439,11.325 3.371,-6.097 c -0.319,-2.667 -0.12,-3.9 0.388,-4.337 l 0.822,-0.758 -0.768,-1.974 -8.522,3.312 0.768,1.976 0.994,-0.108 c 1.009,-0.074 1.775,0.665 2.244,3.514 l 0.161,1.134 -4.191,1.629 z"
             style="fill:#231f20;fill-opacity:1;fill-rule:nonzero;stroke:none"
             id="path244" /></g><g
           id="g246"
           transform="translate(268.5645,77.1152)"><path
             d="M 0,0 C -0.747,0.224 -1.339,-0.065 -1.852,-1.774 L -3.066,-5.833 0.672,-6.952 C 1.848,-7.306 3.425,-6.574 4,-4.651 4.672,-2.407 3.702,-1.108 2.527,-0.757 L 0,0 z m -4.08,-9.216 -1.407,-4.7 c -0.492,-1.637 -0.439,-2.894 0.799,-3.421 l 0.788,-0.351 -0.609,-2.03 -8.794,2.634 0.608,2.029 1.192,-0.165 c 0.907,-0.076 1.503,0.872 1.993,2.509 l 3.689,12.32 C -5.32,1.282 -5.438,2.442 -6.108,2.8 L -7.193,3.317 -6.586,5.348 3.455,2.341 C 8.014,0.975 9.467,-1.942 8.369,-5.61 7.517,-8.458 5.788,-9.688 4.213,-10.03 l -0.021,-0.073 c 0.944,-1.251 1.001,-2.744 0.593,-4.754 -0.43,-2.084 -0.576,-3.087 -0.006,-3.258 0.534,-0.159 1.028,0.971 1.263,1.755 l 0.491,1.638 2.066,-0.619 -0.492,-1.637 c -1.482,-4.949 -3.218,-5.826 -5.319,-5.197 -2.564,0.768 -3.19,2.431 -2.39,6.924 0.406,2.129 0.506,4.543 -1.13,5.033 l -3.348,1.002 z"
             style="fill:#231f20;fill-opacity:1;fill-rule:nonzero;stroke:none"
             id="path248" /></g><g
           id="g250"
           transform="translate(294.4238,49.7617)"><path
             d="M 0,0 -1.926,0.419 C -1.999,0.778 -2.183,1.16 -2.581,1.249 -2.98,1.335 -3.545,1.192 -4.182,1.065 -4.818,0.938 -5.968,1.075 -7.13,1.329 c -5.446,1.19 -6.61,6.314 -5.643,10.744 l 1.325,6.065 c 0.895,4.104 4.553,7.605 9.309,6.565 1.054,-0.229 1.979,-0.698 2.792,-1.333 0.525,-0.381 1.064,-0.879 1.608,-0.996 0.437,-0.097 0.731,0.563 0.835,1.034 L 5.565,22.869 3.209,12.083 -0.531,12.9 c 0.75,3.603 0.711,8.825 -2.122,9.443 -2.179,0.476 -3.052,-1.427 -3.496,-3.46 l -2.11,-9.66 c -0.443,-2.034 -0.106,-5.189 2.218,-5.697 1.562,-0.342 3.395,-0.133 4.055,2.881 0.301,1.38 -0.162,2.051 -0.887,2.21 l -0.582,0.127 0.601,2.76 L 4.592,9.879 3.988,7.118 2.755,7.388 C 1.884,7.578 1.482,6.791 1.253,5.737 L 0,0 z"
             style="fill:#231f20;fill-opacity:1;fill-rule:nonzero;stroke:none"
             id="path252" /></g><g
           id="g254"
           transform="translate(309.666,58.4043)"><path
             d="m 0,0 -0.883,-6.032 c -0.216,-1.472 0.18,-2.619 2.056,-2.894 2.574,-0.378 3.475,1.407 3.808,3.688 l 0.265,1.801 2.317,-0.338 -1.216,-8.313 -14.456,2.115 0.306,2.098 1.203,0.012 c 0.905,0.017 1.362,1.078 1.61,2.77 l 1.861,12.727 c 0.254,1.728 -0.032,2.86 -0.746,3.115 l -1.149,0.355 0.305,2.098 L 9.737,11.085 8.564,3.067 6.246,3.406 6.473,4.951 C 6.878,7.708 5.615,9.36 3.888,9.613 2.011,9.888 1.329,9.085 1.082,7.393 L 0.383,2.61 4.023,2.079 3.642,-0.533 0,0 z"
             style="fill:#231f20;fill-opacity:1;fill-rule:nonzero;stroke:none"
             id="path256" /></g><g
           id="g258"
           transform="translate(335.8926,61.002)"><path
             d="m 0,0 c -0.171,1.132 -0.534,2.204 -1.034,2.95 -0.6,0.906 -2.318,2.274 -3.91,2.401 -2.076,0.164 -3.165,-1.353 -3.281,-2.798 -0.205,-2.109 1.077,-2.882 3.829,-3.92 4.738,-1.831 6.729,-4.002 6.377,-8.448 -0.334,-4.188 -3.447,-6.775 -7.225,-6.475 -1.409,0.111 -2.631,0.693 -3.414,1.165 -0.821,0.476 -1.46,0.862 -2.052,0.909 -0.595,0.048 -1.061,-0.663 -1.446,-1.302 l -1.854,0.147 0.632,7.968 1.854,-0.148 c 0.105,-1.014 0.411,-1.859 0.93,-2.833 0.809,-1.556 2.565,-2.927 5.084,-3.125 1.557,-0.125 2.811,1.119 2.928,2.6 0.169,2.113 -1.725,3.159 -2.906,3.774 l -2.796,1.415 c -3.224,1.672 -4.393,3.853 -4.099,7.559 0.313,3.928 3.507,6.136 7.176,5.845 1.148,-0.091 2.353,-0.412 3.04,-0.689 0.577,-0.232 1.12,-0.463 1.675,-0.506 0.445,-0.036 0.764,0.238 1.045,0.475 L 2.369,6.821 1.815,-0.146 0,0 z"
             style="fill:#231f20;fill-opacity:1;fill-rule:nonzero;stroke:none"
             id="path260" /></g><g
           id="g262"
           transform="translate(343.0137,67.6113)"><path
             d="m 0,0 15.986,-0.26 -0.151,-9.329 -2.194,0.033 0.034,2.083 c 0.036,2.195 -0.482,4.619 -2.081,4.644 -1.412,0.023 -1.597,-2.167 -1.619,-3.58 L 9.78,-18.305 c -0.027,-1.71 0.253,-2.793 1.217,-2.995 l 1.148,-0.204 -0.034,-2.119 -8.996,0.145 0.035,2.121 1.192,0.166 c 0.931,0.17 1.248,1.244 1.274,2.954 L 5.811,-6.341 C 5.832,-4.93 5.72,-2.733 4.307,-2.711 2.708,-2.685 2.111,-5.091 2.076,-7.285 L 2.043,-9.367 -0.15,-9.33 0,0 z"
             style="fill:#231f20;fill-opacity:1;fill-rule:nonzero;stroke:none"
             id="path264" /></g><g
           id="g266"
           transform="translate(376.6602,58.4795)"><path
             d="M 0,0 6.073,0.508 5.698,4.99 C 5.552,6.731 5.018,7.77 4.191,7.848 L 3.027,7.938 2.85,10.049 11.777,10.797 11.953,8.686 10.82,8.404 C 10.056,8.192 9.701,7.079 9.847,5.338 l 1.075,-12.815 c 0.142,-1.705 0.529,-2.753 1.471,-2.861 l 1.164,-0.088 0.177,-2.111 -8.927,-0.75 -0.178,2.111 1.134,0.281 c 0.948,0.267 1.153,1.366 1.011,3.069 L 6.349,-2.751 0.272,-3.26 0.698,-8.334 c 0.144,-1.705 0.531,-2.755 1.472,-2.861 l 1.201,-0.086 0.176,-2.112 -8.963,-0.752 -0.178,2.112 1.17,0.286 c 0.873,0.259 1.08,1.357 0.938,3.061 L -4.562,4.131 c -0.146,1.74 -0.68,2.776 -1.433,2.863 L -7.196,7.079 -7.373,9.191 1.553,9.939 1.73,7.828 0.598,7.547 C -0.168,7.333 -0.522,6.222 -0.376,4.481 L 0,0 z"
             style="fill:#231f20;fill-opacity:1;fill-rule:nonzero;stroke:none"
             id="path268" /></g><g
           id="g270"
           transform="translate(400.1221,54.6875)"><path
             d="m 0,0 c 0.429,-2.68 1.206,-4.965 3.409,-4.613 2.166,0.346 2.201,2.95 1.804,5.446 L 3.651,10.597 C 3.324,12.652 2.56,14.603 0.395,14.256 -1.809,13.902 -1.89,11.819 -1.562,9.765 L 0,0 z m 10.017,2.804 c 0.775,-4.618 -1.608,-9.027 -6.233,-9.766 -4.588,-0.732 -8.198,2.077 -8.961,7.076 l -1.084,7.018 c -0.691,4.33 1.685,8.775 6.274,9.509 4.589,0.733 8.154,-2.499 8.924,-7.081 l 1.08,-6.756 z"
             style="fill:#231f20;fill-opacity:1;fill-rule:nonzero;stroke:none"
             id="path272" /></g><g
           id="g274"
           transform="translate(420.7061,56.458)"><path
             d="m 0,0 c 0.399,-1.662 0.933,-2.603 1.889,-2.603 l 0.837,0.011 0.496,-2.059 -6.613,-1.593 -0.496,2.059 1.114,0.458 c 0.823,0.391 0.86,1.508 0.46,3.171 l -3.011,12.502 c -0.408,1.699 -1.096,2.642 -1.853,2.613 l -1.201,-0.098 -0.495,2.06 8.094,1.95 4.912,-10.555 -0.539,11.607 7.913,1.906 0.497,-2.061 -1.113,-0.458 C 10.202,18.592 10.022,17.438 10.43,15.74 L 13.44,3.238 c 0.401,-1.662 0.943,-2.64 1.889,-2.604 l 1.2,0.098 0.496,-2.059 -8.383,-2.021 -0.496,2.061 0.752,0.372 C 9.749,-0.48 9.794,0.601 9.395,2.263 L 6.383,14.766 6.311,14.748 7.124,-3.713 4.776,-4.278 -2.938,12.52 -3.011,12.502 0,0 z"
             style="fill:#231f20;fill-opacity:1;fill-rule:nonzero;stroke:none"
             id="path276" /></g><g
           id="g278"
           transform="translate(445.4707,69.1328)"><path
             d="m 0,0 1.867,-5.802 c 0.456,-1.417 1.318,-2.271 3.121,-1.691 2.477,0.797 2.497,2.796 1.791,4.989 l -0.557,1.734 2.229,0.717 2.574,-7.996 -13.905,-4.475 -0.649,2.017 1.075,0.54 c 0.804,0.415 0.745,1.568 0.222,3.196 L -6.172,5.47 C -6.709,7.133 -7.463,8.022 -8.216,7.937 L -9.405,7.749 -10.055,9.766 3.851,14.241 6.332,6.527 4.104,5.811 3.626,7.297 C 2.771,9.95 0.911,10.874 -0.751,10.34 -2.555,9.759 -2.813,8.737 -2.289,7.111 L -0.808,2.512 2.695,3.639 3.503,1.127 0,0 z"
             style="fill:#231f20;fill-opacity:1;fill-rule:nonzero;stroke:none"
             id="path280" /></g><g
           id="g282"
           transform="translate(470.0547,69.04)"><path
             d="M 0,0 C 1.863,0.75 1.975,3.359 1.199,5.29 0.326,7.464 -1.422,8.523 -3.25,7.789 l -3,-1.205 2.147,-5.346 c 0.636,-1.588 1.447,-2.303 2.172,-2.013 L 0,0 z m -7.208,8.963 3.104,1.248 c 1.898,0.763 2.393,2.324 1.645,4.185 -0.874,2.173 -2.664,3.137 -3.802,2.679 L -8.709,16.091 C -9.434,15.8 -9.508,14.688 -8.829,12.999 l 1.621,-4.036 z m -5.588,2.641 c -0.651,1.623 -1.468,2.457 -2.212,2.317 l -1.173,-0.271 -0.79,1.966 9.727,3.907 c 4.242,1.706 7.371,0.399 8.799,-3.153 1.04,-2.587 0.42,-4.638 -0.081,-5.48 L 1.486,10.854 C 3.421,10.229 4.714,8.906 5.49,6.975 7.222,2.662 5.834,-0.458 2.384,-1.844 l -10.623,-4.27 -0.791,1.967 1.035,0.616 c 0.759,0.504 0.632,1.617 -0.006,3.202 l -4.795,11.933 z"
             style="fill:#231f20;fill-opacity:1;fill-rule:nonzero;stroke:none"
             id="path284" /></g><g
           id="g286"
           transform="translate(481.6289,93.4326)"><path
             d="m 0,0 c -0.699,-0.348 -0.934,-0.963 -0.139,-2.561 l 1.891,-3.793 3.495,1.74 c 1.099,0.548 1.749,2.159 0.855,3.956 C 5.057,1.439 3.462,1.725 2.363,1.178 L 0,0 z m 3.326,-9.517 2.189,-4.393 c 0.762,-1.531 1.659,-2.414 2.923,-1.949 l 0.815,0.281 0.944,-1.899 -8.22,-4.093 -0.945,1.897 0.983,0.697 c 0.715,0.564 0.501,1.663 -0.261,3.193 L -3.98,-4.267 c -0.78,1.564 -1.661,2.331 -2.392,2.132 l -1.149,-0.363 -0.944,1.897 9.387,4.675 c 4.26,2.121 7.317,0.985 9.023,-2.443 1.327,-2.664 0.908,-4.741 -0.009,-6.069 l 0.033,-0.068 c 1.547,-0.267 2.608,-1.318 3.686,-3.064 1.113,-1.815 1.693,-2.647 2.225,-2.383 0.5,0.249 0.086,1.414 -0.278,2.146 l -0.763,1.532 1.931,0.961 0.762,-1.533 c 2.304,-4.626 1.636,-6.454 -0.328,-7.43 -2.397,-1.194 -3.991,-0.411 -6.479,3.418 -1.162,1.832 -2.739,3.663 -4.27,2.9 L 3.326,-9.517 z"
             style="fill:#231f20;fill-opacity:1;fill-rule:nonzero;stroke:none"
             id="path288" /></g><g
           id="g290"
           transform="translate(505.6953,95.9619)"><path
             d="m 0,0 3.1,-5.251 c 0.755,-1.281 1.783,-1.926 3.417,-0.962 2.241,1.323 1.821,3.277 0.648,5.262 l -0.925,1.568 2.018,1.192 4.271,-7.237 -12.584,-7.426 -1.077,1.825 0.93,0.765 c 0.694,0.581 0.384,1.692 -0.486,3.166 L -7.227,3.98 C -8.116,5.485 -9.048,6.186 -9.764,5.938 L -10.883,5.492 -11.959,7.317 0.622,14.744 4.742,7.764 2.726,6.572 1.932,7.918 c -1.417,2.4 -3.434,2.894 -4.94,2.006 C -4.64,8.961 -4.668,7.908 -3.797,6.436 L -1.342,2.272 1.828,4.143 3.17,1.87 0,0 z"
             style="fill:#231f20;fill-opacity:1;fill-rule:nonzero;stroke:none"
             id="path292" /></g><g
           id="g294"
           transform="translate(528.9326,126.1416)"><path
             d="M 0,0 1.216,-1.735 0.379,-2.547 c -0.768,-0.72 -0.293,-2.112 0.792,-4.438 l 7.301,-15.673 -2.466,-1.729 -10.477,9.775 6.305,-12.695 -2.467,-1.729 -14.145,12.876 c -0.969,0.865 -1.984,1.471 -2.687,1.116 l -1.051,-0.511 -1.215,1.738 7.003,4.903 1.217,-1.734 -0.868,-0.835 c -0.576,-0.539 -0.184,-1.037 1.038,-2.132 l 7.016,-6.388 -6.272,12.583 2.62,1.833 10.423,-9.764 -3.873,8.316 c -0.707,1.593 -1.184,2.211 -2.152,1.713 L -4.631,-5.83 -5.847,-4.094 0,0 z"
             style="fill:#231f20;fill-opacity:1;fill-rule:nonzero;stroke:none"
             id="path296" /></g><g
           id="g298"
           transform="translate(553.541,132.6299)"><path
             d="m 0,0 c -2.42,2.771 -6.664,5.826 -8.849,3.919 -1.68,-1.467 -0.672,-3.3 0.698,-4.869 l 6.501,-7.448 c 1.931,-2.213 4.106,-3.178 5.759,-1.736 1.68,1.468 1.734,3.439 -0.978,6.549 l 2.883,2.517 C 8.631,-4.064 9.648,-8.453 5.59,-12 c -4.426,-3.861 -9.236,-1.743 -12.219,1.672 l -4.058,4.649 c -2.567,2.942 -3.281,8.338 0.249,11.418 0.811,0.708 1.686,1.177 2.733,1.448 0.667,0.14 1.423,0.405 1.759,0.698 0.28,0.244 0.301,0.559 -0.333,1.287 L -4.375,10.835 2.885,2.517 0,0 z"
             style="fill:#231f20;fill-opacity:1;fill-rule:nonzero;stroke:none"
             id="path300" /></g><g
           id="g302"
           transform="translate(557.7139,144.1826)"><path
             d="M 0,0 C -1.238,1.233 -2.317,1.679 -2.947,1.257 L -3.918,0.545 -5.419,2.041 0.905,8.388 2.405,6.891 1.698,5.917 C 1.279,5.287 1.728,4.209 2.964,2.977 l 8.428,-8.398 c 1.5,-1.497 2.711,-1.968 4.625,-0.046 1.837,1.845 1.888,3.106 0.625,4.365 L 15.193,0.342 16.845,2 l 5.398,-5.379 -11.074,-11.112 -1.499,1.497 0.707,0.973 c 0.499,0.762 -0.056,1.734 -1.267,2.942 L 0,0 z"
             style="fill:#231f20;fill-opacity:1;fill-rule:nonzero;stroke:none"
             id="path304" /></g><g
           id="g306"
           transform="translate(564.3359,158.3047)"><path
             d="M 0,0 5.916,6.727 7.507,5.327 6.861,4.312 C 6.482,3.654 6.998,2.607 8.31,1.453 l 5.946,-5.229 c 4.383,-3.854 6.352,-4.993 8.341,-2.731 1.276,1.451 1.292,3.27 -2.227,6.362 L 12.777,6.534 C 11.717,7.468 10.508,8.233 9.71,7.55 l -0.9,-0.742 -1.592,1.399 4.739,5.388 1.59,-1.4 -0.646,-1.016 c -0.55,-0.852 0.363,-1.952 1.423,-2.885 l 7.119,-6.262 c 5.247,-4.615 5.297,-7.43 2.769,-10.305 -3.88,-4.413 -7.176,-3.543 -12.061,0.753 L 5.534,-1.7 C 4.223,-0.546 3.118,-0.169 2.516,-0.63 L 1.59,-1.4 0,0 z"
             style="fill:#231f20;fill-opacity:1;fill-rule:nonzero;stroke:none"
             id="path308" /></g><g
           id="g310"
           transform="translate(600.9482,169.7822)"><path
             d="M 0,0 C 1.209,1.602 -0.04,3.896 -1.7,5.152 -3.569,6.563 -5.614,6.571 -6.802,4.998 l -1.949,-2.581 4.597,-3.474 c 1.365,-1.03 2.427,-1.227 2.899,-0.605 L 0,0 z m -10.798,3.964 2.016,2.669 c 1.233,1.632 0.851,3.224 -0.75,4.434 -1.869,1.412 -3.899,1.316 -4.639,0.336 l -1.592,-2.106 c -0.468,-0.623 0.04,-1.613 1.494,-2.711 l 3.471,-2.622 z m -6.151,-0.618 c -1.395,1.052 -2.524,1.345 -3.093,0.843 l -0.863,-0.838 -1.692,1.278 6.321,8.365 c 2.755,3.65 6.111,4.144 9.166,1.835 2.225,-1.681 2.754,-3.757 2.757,-4.738 l 0.031,-0.023 c 1.978,0.462 3.768,-0.005 5.429,-1.261 3.709,-2.801 4.128,-6.193 1.888,-9.16 l -6.902,-9.136 -1.692,1.276 0.569,1.063 c 0.39,0.824 -0.292,1.711 -1.657,2.742 l -10.262,7.754 z"
             style="fill:#231f20;fill-opacity:1;fill-rule:nonzero;stroke:none"
             id="path312" /></g><g
           id="g314"
           transform="translate(609.1494,196.6533)"><path
             d="m 0,0 5.187,-3.202 c 1.265,-0.782 2.473,-0.873 3.47,0.739 1.368,2.213 0.087,3.747 -1.875,4.959 L 5.233,3.452 6.464,5.444 13.611,1.03 5.935,-11.397 l -1.802,1.112 0.466,1.111 c 0.342,0.836 -0.45,1.676 -1.905,2.573 L -8.248,0.156 c -1.486,0.919 -2.639,1.106 -3.154,0.551 l -0.784,-0.914 -1.803,1.112 7.676,12.43 6.894,-4.257 -1.23,-1.993 -1.329,0.82 C -4.349,9.369 -6.363,8.867 -7.283,7.381 -8.277,5.768 -7.813,4.824 -6.357,3.926 L -2.246,1.387 -0.313,4.518 1.934,3.132 0,0 z"
             style="fill:#231f20;fill-opacity:1;fill-rule:nonzero;stroke:none"
             id="path316" /></g><g
           id="g318"
           transform="translate(611.9668,217.4502)"><path
             d="m 0,0 c -0.644,0.179 -1.3,0.242 -1.817,0.155 -0.624,-0.103 -1.762,-0.692 -2.208,-1.509 -0.584,-1.064 -0.038,-2.005 0.705,-2.412 1.07,-0.611 1.788,-0.113 2.997,1.102 C 1.78,-0.581 3.41,-0.041 5.691,-1.29 7.839,-2.467 8.471,-4.739 7.41,-6.677 7.014,-7.399 6.414,-7.91 5.975,-8.214 5.525,-8.536 5.169,-8.784 5.001,-9.09 4.835,-9.393 5.102,-9.811 5.349,-10.169 l -0.52,-0.95 -4.085,2.238 0.521,0.949 c 0.564,-0.185 1.087,-0.223 1.727,-0.18 1.021,0.058 2.169,0.666 2.876,1.958 0.437,0.799 0.075,1.761 -0.684,2.177 C 4.1,-3.383 3.093,-4.141 2.482,-4.622 L 1.063,-5.771 c -1.658,-1.315 -3.096,-1.416 -4.998,-0.375 -2.014,1.103 -2.424,3.329 -1.393,5.209 0.322,0.588 0.779,1.155 1.091,1.454 0.26,0.252 0.512,0.485 0.669,0.768 0.124,0.23 0.056,0.465 -0.005,0.67 L -3.063,2.886 0.51,0.93 0,0 z"
             style="fill:#231f20;fill-opacity:1;fill-rule:nonzero;stroke:none"
             id="path320" /></g><g
           id="g322"
           transform="translate(610.1914,222.7969)"><path
             d="M 0,0 4.152,8.347 9.023,5.925 8.455,4.779 7.366,5.319 C 6.223,5.889 4.816,6.226 4.4,5.391 4.033,4.653 5.14,4.005 5.877,3.639 L 12.09,0.55 c 0.891,-0.445 1.533,-0.568 1.881,-0.112 l 0.395,0.553 1.107,-0.551 -2.336,-4.696 -1.106,0.551 0.211,0.669 c 0.145,0.533 -0.341,0.969 -1.234,1.412 L 4.796,1.465 C 4.059,1.831 2.877,2.322 2.509,1.585 2.094,0.751 3.211,-0.168 4.354,-0.737 L 5.443,-1.277 4.873,-2.423 0,0 z"
             style="fill:#231f20;fill-opacity:1;fill-rule:nonzero;stroke:none"
             id="path324" /></g><g
           id="g326"
           transform="translate(640.1924,232.1328)"><path
             d="m 0,0 -1.517,0.611 c -4.447,1.798 -5.591,4.625 -6.425,7.327 -1.126,3.864 -2.328,5.952 -4.912,6.997 -1.725,0.695 -3.817,0.578 -4.597,-1.354 -1.002,-2.481 0.456,-4.033 1.284,-4.366 0.553,-0.225 1.056,-0.067 1.409,0.513 0.453,0.82 1.304,1.238 2.475,0.765 1.137,-0.459 1.85,-1.87 1.309,-3.216 -0.738,-1.827 -2.857,-1.813 -5.271,-0.839 -3.619,1.462 -4.49,5.463 -3.126,8.841 1.225,3.034 4.554,5.62 8.483,4.033 4.827,-1.95 5.568,-5.577 5.664,-8.021 0.145,-2.022 0.377,-4.923 2.221,-6.911 l 0.131,0.027 c -0.423,1.334 -0.378,2.439 0.082,3.576 0.306,0.759 0.652,1.22 1.116,1.674 0.569,0.614 1.095,1.122 1.415,1.915 0.431,1.071 -0.906,1.729 -2.631,2.426 l 0.824,2.033 1.998,-0.807 C 3.655,13.721 4.912,11.569 3.784,8.776 3.325,7.64 2.55,6.91 1.954,6.429 1.012,5.687 0.258,4.908 -0.104,4.013 -0.382,3.322 -0.122,2.575 0.836,2.069 L 0,0 z"
             style="fill:#231f20;fill-opacity:1;fill-rule:nonzero;stroke:none"
             id="path328" /></g><g
           id="g330"
           transform="translate(647.9473,258.9932)"><path
             d="m 0,0 c 0.691,2.121 -2.031,3.479 -8.356,5.545 -7.032,2.295 -9.151,2.518 -9.841,0.397 -0.694,-2.12 1.147,-3.19 8.179,-5.485 C -3.692,-1.609 -0.693,-2.119 0,0 m -11.646,-4.525 c -6.89,2.249 -10.256,6.789 -8.814,11.206 1.442,4.418 6.769,6.119 13.729,3.846 C 0.195,8.266 3.946,4.421 2.261,-0.738 0.565,-5.933 -4.719,-6.788 -11.646,-4.525"
             style="fill:#231f20;fill-opacity:1;fill-rule:nonzero;stroke:none"
             id="path332" /></g><g
           id="g334"
           transform="translate(654.2275,272.3359)"><path
             d="m 0,0 -2.05,0.534 0.111,1.162 c 0.065,0.983 -0.913,1.506 -2.568,1.938 l -12.626,3.294 -0.881,-3.382 -2.41,0.629 0.207,0.791 c 0.479,1.834 0.195,3.253 -1.487,4.613 l 0.695,2.662 17.553,-4.578 C -1.802,7.231 -0.684,7.247 -0.26,8.136 L 0.22,9.239 2.271,8.704 0,0 z"
             style="fill:#231f20;fill-opacity:1;fill-rule:nonzero;stroke:none"
             id="path336" /></g><g
           id="g338"
           transform="translate(657.2578,294.6982)"><path
             d="M 0,0 C 0.431,2.188 -2.437,3.209 -8.963,4.496 -16.221,5.928 -18.35,5.894 -18.78,3.705 -19.213,1.517 -17.258,0.676 -10,-0.755 -3.473,-2.043 -0.432,-2.188 0,0 m -11.014,-5.896 c -7.111,1.402 -11.001,5.501 -10.1,10.061 0.898,4.56 5.981,6.89 13.165,5.473 C -0.802,8.228 3.384,4.864 2.333,-0.46 1.276,-5.82 -3.866,-7.308 -11.014,-5.896"
             style="fill:#231f20;fill-opacity:1;fill-rule:nonzero;stroke:none"
             id="path340" /></g><g
           id="g342"
           transform="translate(629.0957,210.6533)"><path
             d="m 0,0 c -0.73,-1.428 -2.346,-2.015 -3.503,-1.423 -1.196,0.612 -1.59,2.227 -0.859,3.655 0.711,1.388 2.288,2.09 3.486,1.479 C 0.281,3.118 0.71,1.389 0,0"
             style="fill:#231f20;fill-opacity:1;fill-rule:nonzero;stroke:none"
             id="path344" /></g></g></g></g></svg>